PathFileType	4	(X/Y/Z)	C:/Users/beibeiliu/ov580/test_trc/User3\sequence.8_training_dense_right.trc
DataRate	CameraRate	NumFrames	NumMarkers	Units	OrigDataRate	OrigDataStartFrame	OrigNumFrames
120	120	16	19	mm	120	177	235
Frame#	Time	ThumbCMC			ThumbMCP			ThumbIP			ThumbTip			IndexMCP			IndexPIP			IndexTip			MiddleMCP			MiddlePIP			MiddleTip			RingMCP			RingPIP			RingTip			PinkyMCP			PinkyPIP			PinkyTip			BackHand1			BackHand2			BackHand3	
		X0	Y0	Z0	X1	Y1	Z1	X2	Y2	Z2	X3	Y3	Z3	X4	Y4	Z4	X5	Y5	Z5	X6	Y6	Z6	X7	Y7	Z7	X8	Y8	Z8	X9	Y9	Z9	X10	Y10	Z10	X11	Y11	Z11	X12	Y12	Z12	X13	Y13	Z13	X14	Y14	Z14	X15	Y15	Z15	X16	Y16	Z16	X17	Y17	Z17	X18	Y18	Z18	
176	1.46667	121.498	-17.0452	46.1607	102.667	-28.3715	19.6009	93.955	-42.0315	-8.55739	107.58	-57.0363	-24.1237	126.657	-3.39061	-32.0461	114.195	-1.51205	-55.4214	106.57	-4.45013	-78.3473	138.342	-30.5307	-39.5974	121.687	-58.7632	-39.4579	126.827	-64.5463	-1.67305	150.039	-45.1548	-30.1196	137.123	-69.9181	-24.9522	137.048	-68.4013	12.1229	168.552	-56.0975	-19.5852	153.533	-77.5408	-11.2738	148.833	-69.9177	17.3154	177.73	-14.4902	11.2462	184.631	-12.054	45.8807	151.118	0.646969	33.2974	
177	1.475	116.854	-16.695	49.149	96.4195	-29.2503	22.9056	94.3283	-41.6927	-6.50447	97.5839	-58.6124	-25.2585	117.568	0.00620348	-29.2969	110.983	-1.21096	-56.1109	102.32	-1.74857	-77.1371	135.173	-27.6328	-35.872	114.156	-57.2519	-37.5344	121.69	-62.5494	2.33717	150.532	-46.3307	-28.4363	134.857	-72.0048	-22.7678	132.495	-68.0487	11.8959	166.512	-56.731	-18.0944	146.318	-74.166	-13.7801	141.915	-64.3811	16.6249	174.279	-12.3206	16.1719	183.326	-12.4283	45.5811	148.003	3.35211	36.0881	
178	1.48333	116.364	-17.0423	49.9129	94.0975	-29.1912	20.9551	84.5329	-42.0011	-4.76687	93.9013	-57.7237	-24.6306	114.606	-0.726086	-24.8335	106.455	0.615397	-51.3339	96.4003	-0.0659037	-76.7551	128.949	-27.8151	-34.7002	110.86	-55.4878	-39.0227	117.701	-61.4523	3.40146	141.419	-46.191	-28.6336	131.563	-72.6376	-21.0099	130.176	-68.3577	12.4317	159.66	-53.6335	-17.5246	140.893	-74.1416	-12.7254	138.534	-69.1158	17.4104	168.909	-14.3156	14.434	180.102	-13.3417	42.8217	146.365	-0.195409	34.4191	
179	1.49167	110.953	-16.7886	48.0548	92.2489	-29.684	24.6637	84.3788	-42.2658	0.957504	91.7831	-57.2954	-20.2949	112.399	-1.69448	-29.539	97.8599	-0.183462	-50.5784	93.8992	-4.75311	-72.9616	125.295	-27.5142	-33.9743	110.093	-57.1088	-38.6659	113.662	-64.4384	0.555563	140.888	-47.8075	-27.444	122.752	-71.7791	-18.2588	125.043	-65.2722	15.213	152.108	-56.4068	-19.0266	136.541	-74.336	-12.2985	134.854	-68.0444	19.6534	167.486	-15.8791	15.391	176.753	-15.6794	45.5325	142.211	1.02711	36.2952	
180	1.5	109.512	-18.824	51.135	86.7989	-31.0978	29.7619	80.4835	-43.7541	0.41183	83.9294	-59.963	-20.3061	107.428	-5.23821	-23.1541	93.284	-7.12835	-51.447	79.5178	-13.0492	-72.2504	119.024	-30.3919	-33.4797	102.722	-57.9004	-34.7753	110.115	-66.0002	3.2415	132.909	-44.5253	-24.5715	120.829	-74.4582	-14.7991	121.692	-68.5587	15.2861	152.271	-54.1024	-16.4348	133.858	-76.3221	-11.0411	133.532	-70.3448	19.4325	164.065	-14.93	11.9022	173.985	-12.9239	47.189	138.825	1.49048	37.9637	
181	1.50833	105.042	-19.5569	51.782	83.7672	-32.2364	29.5019	75.8151	-45.4759	5.80573	82.6474	-60.2285	-15.7399	97.067	-9.77891	-22.1161	81.7614	-18.9477	-47.6857	69.7082	-32.3946	-64.1395	116.726	-31.1921	-30.7023	100.079	-61.2211	-33.1159	103.765	-67.8247	7.16628	133.754	-47.5225	-23.8264	119.913	-75.4608	-14.5378	116.605	-68.4073	16.8808	148.585	-57.7835	-17.6712	130.933	-76.2509	-8.76601	128.2	-73.4034	18.7338	156.186	-12.0657	17.1942	167.143	-10.6246	44.6766	134.275	-1.28257	39.0042	
182	1.51667	100.967	-19.4191	55.9098	82.608	-33.6904	35.2193	72.3401	-47.4378	3.01411	79.9945	-62.3981	-16.3279	88.2775	-17.3736	-22.5357	75.3809	-32.077	-41.7878	64.6832	-51.3993	-53.3417	109.942	-32.1433	-27.5296	97.6782	-62.8105	-32.331	100.66	-70.5149	10.5761	126.621	-46.2076	-21.1478	115.704	-77.7549	-12.725	119.57	-70.0067	20.2833	143.849	-58.253	-17.4262	127.554	-77.0511	-6.99585	125.447	-74.1932	20.4923	152.394	-11.9927	13.3325	166.836	-12.3311	45.8563	129.176	1.81742	39.2418	
183	1.525	103.412	-21.0571	56.3325	81.4418	-35.1703	34.086	69.7798	-47.9907	8.35394	76.7278	-63.7306	-13.7642	90.0148	-20.7276	-17.7829	69.8546	-37.4198	-34.803	57.2805	-57.887	-45.079	109.621	-36.0364	-27.489	94.1723	-67.2427	-28.2168	102.736	-72.1148	10.6164	123.446	-51.9935	-23.175	112.473	-78.5472	-9.51022	115.281	-70.3699	20.8864	145.449	-59.334	-13.8969	128.31	-80.4507	-5.42952	124.928	-70.6545	24.7062	151.766	-13.3142	14.6514	164.978	-12.0536	46.4379	126.402	0.18512	38.6572	
184	1.53333	99.6477	-20.1847	55.121	81.9952	-34.4344	32.6025	70.0673	-48.5962	7.43242	78.5689	-62.8016	-11.4047	85.3963	-19.5523	-18.558	69.0263	-35.7421	-38.2705	58.3674	-55.6252	-48.6223	107.02	-37.2194	-28.5918	94.8477	-65.3035	-29.2188	100.947	-72.1143	13.0083	123.088	-50.0441	-19.8266	109.185	-77.3085	-10.228	115.909	-70.2922	22.2969	141.502	-57.5981	-12.4384	128.907	-82.8639	-4.14577	128.547	-74.6842	24.8929	149.375	-14.8531	16.881	160.365	-10.9602	44.6605	126.777	-1.87452	39.9289	
185	1.54167	101.686	-21.3553	57.441	78.5849	-34.9196	36.416	72.6274	-48.0326	9.25797	78.3735	-63.2932	-12.355	87.5723	-15.6032	-20.8848	72.7805	-24.496	-39.9297	59.2259	-47.1236	-58.3518	103.185	-35.7571	-29.0598	93.7397	-66.7884	-26.1124	99.4884	-70.354	10.1078	121.87	-52.8506	-21.9333	113.366	-77.1382	-13.5541	112.263	-70.8785	21.4926	141.274	-56.335	-12.2722	125.63	-80.4974	-3.58743	128.256	-74.3152	24.0698	148.833	-14.6658	14.9034	163.001	-13.4907	48.8301	126.667	-0.616888	42.3123	
186	1.55	101.936	-20.783	58.6487	79.3845	-33.6213	34.0218	74.05	-46.0599	5.14964	78.8484	-60.6903	-14.6845	91.4556	-9.61773	-17.3553	75.8306	-15.936	-43.055	64.7441	-29.9521	-63.8246	106.852	-31.9673	-26.9911	92.1651	-61.9797	-29.7644	101.256	-67.6675	12.8073	125.328	-50.4074	-22.8969	114.462	-75.1997	-13.5912	113.472	-70.7515	19.9023	144.187	-59.1933	-15.5371	125.742	-76.7005	-5.51013	125.084	-72.5468	23.0181	150.588	-13.3285	18.45	164.494	-11.5884	47.3908	126.146	0.767557	37.7706	
187	1.55833	103.568	-19.6819	58.8715	83.8774	-31.4639	31.7596	73.2414	-44.223	6.71473	78.2711	-58.212	-15.8945	99.2165	-5.90206	-18.163	81.457	-5.52926	-45.7999	75.3318	-13.3216	-67.6695	110.74	-30.3655	-27.6629	93.6667	-61.1966	-27.098	104.318	-64.4591	10.4557	125.782	-46.7539	-23.5385	113.431	-71.481	-16.194	115.639	-68.291	20.1877	145.221	-57.798	-16.7328	129.853	-78.366	-4.96786	128.645	-70.7413	25.2717	156.689	-12.1531	18.4093	164.379	-10.4469	45.8967	128.143	0.900843	38.6162	
188	1.56667	106.089	-18.5785	57.2282	81.8349	-29.2759	32.5671	76.7455	-40.0689	1.60877	81.1221	-54.3572	-18.6391	100.951	-0.316582	-20.1377	90.6841	-0.912113	-46.7755	84.5067	-3.24583	-69.1107	112.09	-27.1452	-31.4049	102.067	-56.7487	-33.861	107.489	-61.6041	8.44273	128.562	-42.0431	-23.1847	118.092	-70.3762	-18.2057	119.562	-67.8389	17.7166	146.569	-50.7645	-15.175	129.374	-73.315	-8.41905	128.071	-66.9533	22.8483	158.33	-11.9599	20.6089	165.161	-8.64442	45.7616	135.431	1.98848	41.6927	
189	1.575	103.443	-16.0515	53.2855	84.885	-26.9207	26.8593	77.2923	-38.6765	-3.03357	87.4226	-51.8113	-21.7628	105.183	1.13504	-18.4999	93.3982	4.46414	-47.2551	86.5515	3.32871	-68.7641	116.023	-23.7865	-32.4736	99.8712	-55.2374	-32.1312	106.46	-60.3627	5.2179	130.856	-41.1337	-26.4128	118.276	-66.6213	-18.829	123.308	-65.8417	14.2483	153.928	-49.3335	-15.7692	131.856	-69.0513	-10.3223	131.793	-65.3313	16.9291	161.835	-9.05659	18.7737	167.394	-7.55694	48.2776	132.95	4.09541	40.7494	
190	1.58333	107.862	-15.5842	55.7053	88.751	-25.6143	25.6354	81.2002	-36.8673	-1.18712	91.1267	-49.5577	-25.1965	106.405	4.53207	-21.4473	96.6627	5.2331	-47.2943	89.4547	2.20971	-72.725	121.57	-20.073	-30.5904	107.275	-53.1265	-33.8024	114.086	-57.5297	4.9405	134.304	-38.5437	-27.0522	123.051	-63.6062	-20.8032	124.998	-61.0726	15.6386	154.198	-43.0005	-15.8875	136.734	-66.9518	-13.2717	136.167	-63.5415	15.8366	163.594	-7.82094	16.1889	170.296	-6.56368	50.3361	134.172	6.84859	40.5028	
191	1.59167	111.788	-14.0329	49.7367	94.106	-24.9317	28.8507	83.3912	-35.5107	-4.83291	89.7537	-48.2452	-22.7412	111.185	2.02983	-26.4397	98.9075	0.441143	-48.5575	88.1181	-5.97842	-69.2764	124.362	-22.4729	-35.1091	111.469	-50.3852	-36.356	114.825	-56.2336	3.83081	142.277	-35.0641	-26.081	126.302	-61.8786	-21.2573	126.035	-59.3167	12.6435	159.605	-45.4838	-19.1335	142.872	-68.5647	-12.3317	137.704	-59.0783	17.0055	164.536	-2.90969	17.6064	171.611	-5.44147	48.8617	140.313	5.51653	36.2296	
